<svg width="20" height="20" viewBox="0 0 20 20" fill="none" xmlns="http://www.w3.org/2000/svg">
<path d="M18.3337 10.8332V14.1665C18.3337 17.0832 16.667 18.3332 14.167 18.3332H5.83366C3.33366 18.3332 1.66699 17.0832 1.66699 14.1665V10.8332C1.66699 8.62484 2.62533 7.37486 4.16699 6.89986C4.66699 6.74153 5.22533 6.6665 5.83366 6.6665H14.167C14.7753 6.6665 15.3337 6.74153 15.8337 6.89986C17.3753 7.37486 18.3337 8.62484 18.3337 10.8332Z" stroke="#999999" stroke-width="1.5" stroke-miterlimit="10" stroke-linecap="round" stroke-linejoin="round"/>
<path d="M15.8337 5.83317V6.89986C15.3337 6.74153 14.7753 6.6665 14.167 6.6665H5.83366C5.22533 6.6665 4.66699 6.74153 4.16699 6.89986V5.83317C4.16699 4.9165 4.91699 4.1665 5.83366 4.1665H14.167C15.0837 4.1665 15.8337 4.9165 15.8337 5.83317Z" stroke="#999999" stroke-width="1.5" stroke-miterlimit="10" stroke-linecap="round" stroke-linejoin="round"/>
<path d="M13.3337 2.92485V4.1665H6.66699V2.92485C6.66699 2.23318 7.23367 1.6665 7.92533 1.6665H12.0753C12.767 1.6665 13.3337 2.23318 13.3337 2.92485Z" stroke="#999999" stroke-width="1.5" stroke-miterlimit="10" stroke-linecap="round" stroke-linejoin="round"/>
<path d="M7.55801 16.2083C8.16553 16.2083 8.65802 15.7158 8.65802 15.1083C8.65802 14.5008 8.16553 14.0083 7.55801 14.0083C6.9505 14.0083 6.45801 14.5008 6.45801 15.1083C6.45801 15.7158 6.9505 16.2083 7.55801 16.2083Z" stroke="#999999" stroke-width="1.5" stroke-linecap="round" stroke-linejoin="round"/>
<path d="M12.7077 14.3748V10.0664C12.7077 9.14977 12.1326 9.01644 11.5493 9.18311L9.34101 9.78308C8.94101 9.89142 8.66602 10.2081 8.66602 10.6664V11.4331V11.9498V15.1081" stroke="#999999" stroke-width="1.5" stroke-linecap="round" stroke-linejoin="round"/>
<path d="M11.6078 15.4749C12.2153 15.4749 12.7078 14.9824 12.7078 14.3749C12.7078 13.7674 12.2153 13.2749 11.6078 13.2749C11.0003 13.2749 10.5078 13.7674 10.5078 14.3749C10.5078 14.9824 11.0003 15.4749 11.6078 15.4749Z" stroke="#999999" stroke-width="1.5" stroke-linecap="round" stroke-linejoin="round"/>
<path d="M8.66602 11.9579L12.7077 10.8579" stroke="#999999" stroke-width="1.5" stroke-linecap="round" stroke-linejoin="round"/>
</svg>
