<svg width="20" height="20" viewBox="0 0 20 20" fill="none" xmlns="http://www.w3.org/2000/svg">
<path d="M16.6999 5.68324L11.8999 2.32491C10.5915 1.40824 8.5832 1.45824 7.32487 2.43324L3.14987 5.69157C2.31654 6.34157 1.6582 7.67491 1.6582 8.72491V14.4749C1.6582 16.5999 3.3832 18.3332 5.5082 18.3332H14.4915C16.6165 18.3332 18.3415 16.6082 18.3415 14.4832V8.83324C18.3415 7.70824 17.6165 6.32491 16.6999 5.68324ZM10.6249 14.9999C10.6249 15.3416 10.3415 15.6249 9.99987 15.6249C9.6582 15.6249 9.37487 15.3416 9.37487 14.9999V12.4999C9.37487 12.1582 9.6582 11.8749 9.99987 11.8749C10.3415 11.8749 10.6249 12.1582 10.6249 12.4999V14.9999Z" fill="#999999"/>
</svg>
