<svg width="20" height="20" viewBox="0 0 20 20" fill="none" xmlns="http://www.w3.org/2000/svg">
<path d="M10 15.8332C12.7583 15.8332 15 13.5915 15 10.8332V6.6665C15 3.90817 12.7583 1.6665 10 1.6665C7.24167 1.6665 5 3.90817 5 6.6665V10.8332C5 13.5915 7.24167 15.8332 10 15.8332Z" stroke="#999999" stroke-width="1.5" stroke-linecap="round" stroke-linejoin="round"/>
<path d="M2.5 9.1665V10.8332C2.5 14.9748 5.85833 18.3332 10 18.3332C14.1417 18.3332 17.5 14.9748 17.5 10.8332V9.1665" stroke="#999999" stroke-width="1.5" stroke-linecap="round" stroke-linejoin="round"/>
<path d="M7.5918 6.2334C9.07513 5.69173 10.6918 5.69173 12.1751 6.2334" stroke="#999999" stroke-width="1.5" stroke-linecap="round" stroke-linejoin="round"/>
<path d="M8.3584 8.73311C9.3584 8.45811 10.4167 8.45811 11.4167 8.73311" stroke="#999999" stroke-width="1.5" stroke-linecap="round" stroke-linejoin="round"/>
</svg>
