<svg width="20" height="20" viewBox="0 0 20 20" fill="none" xmlns="http://www.w3.org/2000/svg">
<path d="M5.23379 18.3333C6.66973 18.3333 7.83379 17.1692 7.83379 15.7333C7.83379 14.2974 6.66973 13.1333 5.23379 13.1333C3.79785 13.1333 2.63379 14.2974 2.63379 15.7333C2.63379 17.1692 3.79785 18.3333 5.23379 18.3333Z" stroke="#999999" stroke-width="1.5" stroke-linecap="round" stroke-linejoin="round"/>
<path d="M17.3663 14V3.83329C17.3663 1.66662 16.008 1.36662 14.633 1.74162L9.43301 3.15829C8.48301 3.41662 7.83301 4.16662 7.83301 5.24996V7.05829V8.27496V15.725" stroke="#999999" stroke-width="1.5" stroke-linecap="round" stroke-linejoin="round"/>
<path d="M14.767 16.5999C16.2029 16.5999 17.367 15.4358 17.367 13.9999C17.367 12.564 16.2029 11.3999 14.767 11.3999C13.3311 11.3999 12.167 12.564 12.167 13.9999C12.167 15.4358 13.3311 16.5999 14.767 16.5999Z" stroke="#999999" stroke-width="1.5" stroke-linecap="round" stroke-linejoin="round"/>
<path d="M7.83301 7.9335L17.3663 5.3335" stroke="#999999" stroke-width="1.5" stroke-linecap="round" stroke-linejoin="round"/>
</svg>
